<mxfile host="Electron" agent="Mozilla/5.0 (Macintosh; Intel Mac OS X 10_15_7) AppleWebKit/537.36 (KHTML, like Gecko) draw.io/24.7.8 Chrome/128.0.6613.36 Electron/32.0.1 Safari/537.36" version="24.7.8">
  <diagram name="Page-1" id="bwcx1uPCfMOGmCokJzKT">
    <mxGraphModel dx="1811" dy="633" grid="1" gridSize="10" guides="1" tooltips="1" connect="1" arrows="1" fold="1" page="1" pageScale="1" pageWidth="827" pageHeight="1169" math="0" shadow="0">
      <root>
        <mxCell id="0" />
        <mxCell id="1" parent="0" />
        <mxCell id="pNXT60H8HukyGLjXXtOU-67" style="rounded=0;orthogonalLoop=1;jettySize=auto;html=1;exitX=1;exitY=0.5;exitDx=0;exitDy=0;" parent="1" source="pNXT60H8HukyGLjXXtOU-57" target="Rb95aUsHC5VsBfStmE9Q-5" edge="1">
          <mxGeometry relative="1" as="geometry">
            <mxPoint x="172" y="1317.8200000000002" as="targetPoint" />
          </mxGeometry>
        </mxCell>
        <mxCell id="pNXT60H8HukyGLjXXtOU-69" style="rounded=0;orthogonalLoop=1;jettySize=auto;html=1;shape=flexArrow;" parent="1" source="pNXT60H8HukyGLjXXtOU-57" target="pNXT60H8HukyGLjXXtOU-68" edge="1">
          <mxGeometry relative="1" as="geometry" />
        </mxCell>
        <mxCell id="pNXT60H8HukyGLjXXtOU-71" style="rounded=0;orthogonalLoop=1;jettySize=auto;html=1;shape=flexArrow;" parent="1" source="pNXT60H8HukyGLjXXtOU-57" target="Rb95aUsHC5VsBfStmE9Q-2" edge="1">
          <mxGeometry relative="1" as="geometry">
            <mxPoint x="-10" y="1600" as="targetPoint" />
          </mxGeometry>
        </mxCell>
        <mxCell id="pNXT60H8HukyGLjXXtOU-79" style="rounded=0;orthogonalLoop=1;jettySize=auto;html=1;dashed=1;" parent="1" source="pNXT60H8HukyGLjXXtOU-57" target="pNXT60H8HukyGLjXXtOU-78" edge="1">
          <mxGeometry relative="1" as="geometry" />
        </mxCell>
        <mxCell id="pNXT60H8HukyGLjXXtOU-57" value="Maintain Inventory&lt;div&gt;&lt;br&gt;&lt;/div&gt;&lt;div&gt;&amp;lt;&amp;lt;business process&amp;gt;&amp;gt;&lt;/div&gt;" style="shape=step;perimeter=stepPerimeter;whiteSpace=wrap;html=1;fixedSize=1;fillColor=#fff2cc;strokeColor=#000000;strokeWidth=2;size=20;" parent="1" vertex="1">
          <mxGeometry x="-168" y="1240" width="270" height="129.23" as="geometry" />
        </mxCell>
        <mxCell id="Rb95aUsHC5VsBfStmE9Q-6" style="rounded=0;orthogonalLoop=1;jettySize=auto;html=1;shape=flexArrow;" parent="1" source="pNXT60H8HukyGLjXXtOU-58" target="pNXT60H8HukyGLjXXtOU-57" edge="1">
          <mxGeometry relative="1" as="geometry" />
        </mxCell>
        <mxCell id="pNXT60H8HukyGLjXXtOU-58" value="&lt;ul&gt;&lt;li&gt;Delisting of the token (sell)&lt;/li&gt;&lt;li&gt;New orders (restock)&lt;/li&gt;&lt;li&gt;Cancel orders (sell)&lt;/li&gt;&lt;/ul&gt;" style="rounded=0;whiteSpace=wrap;html=1;align=left;fillColor=#d5e8d4;strokeColor=#82b366;" parent="1" vertex="1">
          <mxGeometry x="-160" y="1070" width="250" height="100" as="geometry" />
        </mxCell>
        <mxCell id="Rb95aUsHC5VsBfStmE9Q-7" style="rounded=0;orthogonalLoop=1;jettySize=auto;html=1;dashed=1;" parent="1" source="pNXT60H8HukyGLjXXtOU-60" target="pNXT60H8HukyGLjXXtOU-57" edge="1">
          <mxGeometry relative="1" as="geometry" />
        </mxCell>
        <mxCell id="pNXT60H8HukyGLjXXtOU-60" value="Rebalance inventory in such a way that in the stock we have enough assets to cover for all Index Orders.&lt;div&gt;&lt;br&gt;&lt;/div&gt;&lt;div&gt;If there is some imbalance, there is too much of some asset causing it (layout of the inventory doesn&#39;t match ordered baskets in gross), then sell the extra quantity at loss, to certain level of tolerance (% imbalance we allow). Track the disposals of extra assets, the loss: where the loss come from:&lt;/div&gt;&lt;div&gt;&lt;ul&gt;&lt;li&gt;if client canceled order, and that caused loss, his loss&lt;/li&gt;&lt;li&gt;if someone buys, sells, and fill for them, we mint() some amount to not create loss for us&lt;/li&gt;&lt;li&gt;TDB&lt;/li&gt;&lt;/ul&gt;&lt;/div&gt;" style="shape=note;whiteSpace=wrap;html=1;backgroundOutline=1;darkOpacity=0.05;align=left;spacingTop=10;spacingLeft=10;spacingBottom=10;spacingRight=10;" parent="1" vertex="1">
          <mxGeometry x="-540" y="1420" width="300" height="310" as="geometry" />
        </mxCell>
        <mxCell id="pNXT60H8HukyGLjXXtOU-65" style="rounded=0;orthogonalLoop=1;jettySize=auto;html=1;entryX=0;entryY=0.5;entryDx=0;entryDy=0;" parent="1" source="Rb95aUsHC5VsBfStmE9Q-4" target="pNXT60H8HukyGLjXXtOU-57" edge="1">
          <mxGeometry relative="1" as="geometry">
            <mxPoint x="-178" y="1317.8200000000002" as="sourcePoint" />
          </mxGeometry>
        </mxCell>
        <mxCell id="pNXT60H8HukyGLjXXtOU-68" value="Storage&lt;div&gt;(SQL, CSV, TBD...)&lt;/div&gt;" style="shape=cylinder3;whiteSpace=wrap;html=1;boundedLbl=1;backgroundOutline=1;size=15;fillColor=#e1d5e7;strokeColor=#9673a6;" parent="1" vertex="1">
          <mxGeometry x="150" y="1570" width="120" height="80" as="geometry" />
        </mxCell>
        <mxCell id="pNXT60H8HukyGLjXXtOU-70" value="&lt;span style=&quot;background-color: initial;&quot;&gt;Executions with the link between Buy, Sell, and Cancel (etc)&lt;/span&gt;" style="shape=card;whiteSpace=wrap;html=1;spacingLeft=10;spacingBottom=10;spacingTop=10;spacingRight=10;fillColor=#f5f5f5;fontColor=#333333;strokeColor=#666666;" parent="1" vertex="1">
          <mxGeometry x="-160" y="1420" width="160" height="110" as="geometry" />
        </mxCell>
        <mxCell id="pNXT60H8HukyGLjXXtOU-77" value="Loss, audit trail" style="shape=card;whiteSpace=wrap;html=1;spacingLeft=10;spacingBottom=10;spacingTop=10;spacingRight=10;fillColor=#f5f5f5;fontColor=#333333;strokeColor=#666666;" parent="1" vertex="1">
          <mxGeometry x="70" y="1470" width="160" height="58.75" as="geometry" />
        </mxCell>
        <mxCell id="pNXT60H8HukyGLjXXtOU-78" value="&lt;div&gt;To have assets to cover for all ordered baskets.&lt;/div&gt;&lt;div&gt;&lt;br&gt;&lt;/div&gt;&lt;div&gt;Not loosing money&lt;/div&gt;&lt;div&gt;Charging management fee (time)&lt;/div&gt;&lt;div&gt;We should come out positive&lt;/div&gt;&amp;lt;&amp;lt;goal&amp;gt;&amp;gt;" style="rounded=1;whiteSpace=wrap;html=1;spacingLeft=10;spacingBottom=10;spacingTop=10;spacingRight=10;fillColor=#ffe6cc;strokeColor=#d79b00;" parent="1" vertex="1">
          <mxGeometry x="162" y="1070" width="200" height="110" as="geometry" />
        </mxCell>
        <mxCell id="Rb95aUsHC5VsBfStmE9Q-2" value="Users" style="ellipse;shape=cloud;whiteSpace=wrap;html=1;" parent="1" vertex="1">
          <mxGeometry x="-130" y="1580" width="190" height="110" as="geometry" />
        </mxCell>
        <mxCell id="Rb95aUsHC5VsBfStmE9Q-4" value="&lt;span style=&quot;color: rgb(51, 51, 51); font-family: Helvetica; font-size: 12px; font-style: normal; font-variant-ligatures: normal; font-variant-caps: normal; font-weight: 400; letter-spacing: normal; orphans: 2; text-align: center; text-indent: 0px; text-transform: none; widows: 2; word-spacing: 0px; -webkit-text-stroke-width: 0px; white-space: normal; text-decoration-thickness: initial; text-decoration-style: initial; text-decoration-color: initial; float: none; display: inline !important;&quot;&gt;Buy/Sell/Cancel order&lt;/span&gt;&lt;div style=&quot;forced-color-adjust: none; color: rgb(51, 51, 51); font-family: Helvetica; font-size: 12px; font-style: normal; font-variant-ligatures: normal; font-variant-caps: normal; font-weight: 400; letter-spacing: normal; orphans: 2; text-align: center; text-indent: 0px; text-transform: none; widows: 2; word-spacing: 0px; -webkit-text-stroke-width: 0px; white-space: normal; text-decoration-thickness: initial; text-decoration-style: initial; text-decoration-color: initial;&quot;&gt;Rebalance&lt;/div&gt;&lt;div style=&quot;forced-color-adjust: none; color: rgb(51, 51, 51); font-family: Helvetica; font-size: 12px; font-style: normal; font-variant-ligatures: normal; font-variant-caps: normal; font-weight: 400; letter-spacing: normal; orphans: 2; text-align: center; text-indent: 0px; text-transform: none; widows: 2; word-spacing: 0px; -webkit-text-stroke-width: 0px; white-space: normal; text-decoration-thickness: initial; text-decoration-style: initial; text-decoration-color: initial;&quot;&gt;Delisting&lt;/div&gt;&lt;div style=&quot;forced-color-adjust: none; color: rgb(51, 51, 51); font-family: Helvetica; font-size: 12px; font-style: normal; font-variant-ligatures: normal; font-variant-caps: normal; font-weight: 400; letter-spacing: normal; orphans: 2; text-align: center; text-indent: 0px; text-transform: none; widows: 2; word-spacing: 0px; -webkit-text-stroke-width: 0px; white-space: normal; text-decoration-thickness: initial; text-decoration-style: initial; text-decoration-color: initial;&quot;&gt;&lt;br style=&quot;forced-color-adjust: none;&quot;&gt;&lt;/div&gt;&lt;div style=&quot;forced-color-adjust: none; color: rgb(51, 51, 51); font-family: Helvetica; font-size: 12px; font-style: normal; font-variant-ligatures: normal; font-variant-caps: normal; font-weight: 400; letter-spacing: normal; orphans: 2; text-align: center; text-indent: 0px; text-transform: none; widows: 2; word-spacing: 0px; -webkit-text-stroke-width: 0px; white-space: normal; text-decoration-thickness: initial; text-decoration-style: initial; text-decoration-color: initial;&quot;&gt;&amp;lt;&amp;lt;trigger&amp;gt;&amp;gt;&lt;/div&gt;" style="html=1;shadow=0;dashed=0;align=center;verticalAlign=middle;shape=mxgraph.arrows2.arrow;dy=0;dx=0;notch=35.7;fillColor=#f5f5f5;fontColor=#333333;strokeColor=#666666;labelBackgroundColor=none;" parent="1" vertex="1">
          <mxGeometry x="-422" y="1250.8300000000002" width="190" height="110.77" as="geometry" />
        </mxCell>
        <mxCell id="Rb95aUsHC5VsBfStmE9Q-5" value="&lt;span style=&quot;text-wrap: wrap;&quot;&gt;Rebalance&lt;/span&gt;&lt;div style=&quot;text-wrap: wrap;&quot;&gt;Complete&lt;/div&gt;&lt;div style=&quot;text-wrap: wrap;&quot;&gt;&lt;br&gt;&lt;/div&gt;&lt;div style=&quot;text-wrap: wrap;&quot;&gt;&amp;lt;&amp;lt;signal&amp;gt;&amp;gt;&lt;/div&gt;" style="html=1;shadow=0;dashed=0;align=center;verticalAlign=middle;shape=mxgraph.arrows2.arrow;dy=0;dx=24.3;notch=0;fillColor=#f5f5f5;fontColor=#333333;strokeColor=#666666;" parent="1" vertex="1">
          <mxGeometry x="172" y="1262.43" width="180" height="87.57" as="geometry" />
        </mxCell>
      </root>
    </mxGraphModel>
  </diagram>
</mxfile>
